<?xml version="1.0" encoding="utf-8"?><!DOCTYPE svg PUBLIC "-//W3C//DTD SVG 1.1//EN" "http://www.w3.org/Graphics/SVG/1.1/DTD/svg11.dtd"><svg version="1.1" xmlns="http://www.w3.org/2000/svg" width="81" height="110" viewBox="0 0 81 110"><g fill="#843900"><g transform="scale(0.171,0.171) translate(63,63)"><path d="M 131.75 55.85 L 128.45 60.4 L 125.75 90.95 L 121.5 120.5 L 116.95 142.85 L 114.85 147.95 L 111.85 152.5 L 110.05 154.6 L 105.5 157.95 L 101 159.75 L 99.15 160.05 L 95.55 160.05 L 90.45 158.25 L 88.95 157 L 87.75 155.5 L 86.85 153.7 L 85.65 150.1 L 85.05 146.15 L 85.05 138.3 L 85.95 130.15 L 84.75 108.45 L 85.05 90 L 86.85 48.9 L 87.45 45.3 L 89.55 38.05 L 90.45 30.8 L 90.45 28.7 L 89.85 24.75 L 88.95 22.95 L 88.65 20.55 L 89.85 12.1 L 89.25 7.85 L 88.05 6.05 L 86.25 3.95 L 82 1.25 L 79.6 0.3 L 76.9 0 L 74.5 0.3 L 72.35 0.9 L 70.25 2.15 L 67.25 14.2 L 65.1 27.8 L 65.4 37.75 L 66.65 44.1 L 69.35 49.8 L 71.15 52.55 L 70.85 69.75 L 72.05 129.55 L 71.45 131.05 L 70.55 136.8 L 69.95 147.95 L 68.75 151.6 L 67.85 153.1 L 66.65 154.6 L 63.3 157 L 61.5 157.95 L 57.9 158.55 L 54.55 158.55 L 53.05 158.25 L 37.65 151.3 L 34.35 147.65 L 33.15 145.55 L 31.3 138.9 L 30.7 134.4 L 27.7 126.85 L 26.8 119 L 27.7 102.1 L 27.4 93.65 L 26.8 90.95 L 28.6 87.9 L 29.8 84.55 L 30.1 77.3 L 29.5 66.1 L 29.8 62.2 L 29.5 60.1 L 28.9 58.25 L 27.7 57.05 L 26.5 56.15 L 23.45 54.35 L 21.05 51.65 L 18.65 50.4 L 16.25 50.4 L 13.8 50.7 L 11.1 51.65 L 2.05 66.1 L 0.6 69.75 L 0 73.65 L 0 75.75 L 0.3 77.9 L 2.05 82.1 L 2.65 85.45 L 2.35 101.2 L 3.25 106.9 L 5.05 110.25 L 6.25 111.75 L 8.4 123.2 L 18.95 156.1 L 23.45 160.95 L 25.9 163.05 L 31 166.7 L 39.45 170.6 L 51.55 173.9 L 64.2 174.85 L 66.35 175.45 L 68.15 177.25 L 69.35 179.35 L 70.25 181.75 L 69.35 186.9 L 68.75 197.15 L 69.05 212.25 L 68.15 222.2 L 66.65 224.05 L 64.5 225.55 L 62.4 226.45 L 60 227.05 L 50.65 227.95 L 47.3 229.75 L 42.5 234.3 L 31 250.3 L 28.6 256 L 23.75 270.5 L 18.65 291.35 L 15.6 311.85 L 14.1 325.75 L 14.7 328.15 L 14.7 336 L 12.9 346.55 L 13.2 352.65 L 11.1 369.55 L 8.7 386.15 L 9 391.9 L 7.8 397.35 L 7.45 400.35 L 8.4 426 L 7.8 431.75 L 6.25 437.15 L 7.45 455.9 L 7.15 474.6 L 9 479.7 L 9.9 481.55 L 11.4 483.05 L 12.3 483.65 L 15.95 483.65 L 20.15 478.8 L 21.95 476.1 L 22.55 474.6 L 22.85 472.8 L 22.55 461.9 L 25 428.4 L 25.6 409.4 L 25 391.9 L 28 377.7 L 30.7 336.9 L 34.05 303.7 L 39.45 274.45 L 43.4 260.85 L 46.4 254.5 L 50.05 248.75 L 55.15 243.95 L 61.5 240 L 62.7 239.7 L 63.6 240 L 64.5 240.95 L 65.1 241.85 L 66.05 243.95 L 67.25 245.75 L 68.15 251.2 L 68.15 256.6 L 66.35 277.75 L 67.25 288.3 L 66.35 299.5 L 67.25 322.4 L 66.65 328.15 L 65.4 333.6 L 67.25 346.55 L 67.25 352.95 L 65.1 378.3 L 66.35 395.2 L 66.05 415.75 L 65.1 451.95 L 67.25 467.65 L 66.35 471.55 L 66.05 475.2 L 67.55 493 L 67.25 496.3 L 69.35 503.85 L 71.15 505.7 L 72.95 506.3 L 73.85 506.3 L 76.3 505.4 L 82.95 490.6 L 82.65 464.95 L 79.6 361.7 L 81.1 274.45 L 82 272.3 L 82.65 269.9 L 83.25 265.35 L 82.65 246.95 L 82.95 237 L 83.85 236.4 L 84.45 235.5 L 87.15 233.1 L 89.55 232.5 L 91 233.1 L 98.85 237.6 L 105.5 243.65 L 108.5 247.25 L 112.45 255.4 L 116.95 273.5 L 121.5 302.8 L 123.9 333 L 125.4 377.1 L 123.9 405.5 L 122.4 414.55 L 123.3 426 L 123 447.45 L 123.3 458.9 L 120.9 470.35 L 120.3 476.1 L 120.6 481.55 L 121.5 481.85 L 123.6 483.95 L 124.2 484.85 L 125.1 485.45 L 126.05 485.75 L 129.95 484.55 L 132.65 483.05 L 133.85 482.15 L 134.8 481.25 L 135.7 480.05 L 136.3 478.5 L 138.1 464.05 L 138.4 434.75 L 140.2 419.35 L 140.2 380.1 L 139.3 378.9 L 140.2 369.85 L 138.1 340.55 L 137.2 339.6 L 136.6 336.9 L 137.2 328.75 L 132.65 283.8 L 131.45 277.45 L 128.45 271.4 L 127.85 269 L 126.35 254.8 L 124.8 247.85 L 123.9 245.75 L 121.5 241.85 L 119.1 240.95 L 114.85 238.2 L 109.45 232.8 L 106.1 228.55 L 100.7 223.1 L 98.85 221.9 L 94.65 219.8 L 92.55 219.2 L 89.85 219.2 L 86.85 216.5 L 85.35 213.15 L 84.75 211.35 L 84.45 209.55 L 84.75 193.55 L 84.15 189.6 L 84.15 182.7 L 84.45 180.55 L 85.05 178.45 L 86.25 176.35 L 87.75 174.55 L 89.85 172.7 L 93.45 172.7 L 117.6 167.9 L 123 163.65 L 124.2 162.45 L 125.1 160.95 L 125.4 159.15 L 125.4 157 L 126.65 156.7 L 127.55 156.1 L 128.15 155.2 L 128.45 154.3 L 128.75 151.6 L 134.5 132.6 L 140.8 97.55 L 143.25 79.1 L 144.15 75.75 L 144.45 68.85 L 143.55 65.2 L 142.35 62.2 L 139.6 57.65 L 138.4 56.45 L 136.9 55.55 L 135.4 54.35 L 132.65 54.95 L 131.75 55.85"></path><path d="M 304 108.15 L 303.05 106.3 L 301.85 104.5 L 299.75 102.7 L 290.4 87.9 L 278 64 L 269.35 48.3 L 262.1 36.85 L 253.95 19.65 L 250.9 16.3 L 247.3 13.6 L 245.2 12.7 L 242.75 12.1 L 241.25 13 L 240.05 14.2 L 239.15 16 L 238.85 16.9 L 238.85 17.85 L 238.55 19.95 L 237.35 23.55 L 236.45 25.35 L 227.1 38.05 L 224.35 43.5 L 224.05 45.6 L 220.45 50.7 L 200.8 82.7 L 197.2 87.9 L 192.65 97.85 L 175.85 126.25 L 158.3 153.7 L 152.9 163.05 L 141.1 185.7 L 138.1 193.55 L 139 193.55 L 141.7 194.75 L 142.35 194.45 L 143.25 192.65 L 145.35 193.25 L 148.65 193.25 L 151.4 192.05 L 152.6 191.15 L 154.7 189 L 156.5 186.3 L 159.55 183 L 162.25 181.15 L 163.75 180.85 L 165.85 174.85 L 175.2 158.55 L 189.35 136.5 L 191.15 135.6 L 195.1 135 L 196.9 135 L 200.5 135.6 L 214.1 138.9 L 215.9 138.9 L 220.15 138.3 L 240.65 138.3 L 262.1 139.2 L 263 138.9 L 264.2 138 L 264.8 137.7 L 266 137.7 L 266.3 138.3 L 269.65 135.3 L 270.8 133.5 L 271.4 131.35 L 269.65 127.15 L 266.3 123.5 L 262.4 122.3 L 254.85 121.4 L 243.05 121.7 L 219.85 124.75 L 212 124.75 L 204.15 123.5 L 202.35 121.1 L 200.2 117.2 L 200.2 115.65 L 199.9 114.15 L 200.2 112.65 L 206.85 100.9 L 218.3 83.6 L 229.5 63.4 L 233.1 57.65 L 237.95 53.15 L 240.65 51.35 L 243.35 50.1 L 246.7 49.5 L 252.15 53.75 L 261.2 65.5 L 264.5 72.15 L 265.1 74.25 L 266 76.1 L 268.75 79.7 L 271.7 83 L 272.6 84.85 L 273.2 86.95 L 275.6 90.95 L 281.05 102.1 L 284.95 108.75 L 291 114.75 L 304 139.2 L 323.9 170 L 328.4 177.85 L 339.6 177.85 L 340.2 177.55 L 341.1 177.25 L 342 176.05 L 342.6 174.85 L 343.5 169.4 L 344.1 167.9 L 339.3 161.85 L 313.05 123.8 L 306.4 116 L 304 108.15"></path><path d="M 259.95 175.75 L 254.25 176.05 L 224.05 179.65 L 216.2 180.25 L 205.05 183.3 L 199.6 183.6 L 194.8 184.8 L 191.15 187.5 L 189.65 189 L 185.1 197.15 L 179.75 210.45 L 180.05 214.35 L 179.75 226.15 L 174.6 256.6 L 173.7 264.45 L 173.7 272.3 L 171.3 299.5 L 165.85 378 L 165.55 394.6 L 162.85 442 L 164.35 467.65 L 164.05 484.25 L 161.95 500.25 L 159.85 508.1 L 160.45 509.3 L 161.05 510.2 L 162.85 511.4 L 164.95 512 L 167.7 512 L 169.5 511.4 L 171 510.2 L 171.9 509.3 L 173.4 506.6 L 174.3 501.75 L 174.6 488.5 L 174.9 474.3 L 177.35 431.45 L 179.15 387.95 L 178.55 373.2 L 184.5 317.9 L 186.35 295.55 L 189.05 287.1 L 191.45 283.2 L 194.2 281.95 L 200.5 280.45 L 210.8 280.15 L 217.1 281.35 L 220.45 280.15 L 224.35 279.85 L 240.35 280.45 L 244.3 280.15 L 245.8 279.85 L 247.6 279.25 L 249.4 279.85 L 251.2 280.15 L 254.85 280.15 L 261.8 278.65 L 275.3 274.45 L 277.1 271.7 L 279.85 270.5 L 281.05 270.2 L 282.25 270.2 L 285.25 270.5 L 294 273.2 L 296.75 273.5 L 300.95 270.5 L 304 266.9 L 305.2 264.75 L 307 260.25 L 309.4 247.55 L 309.7 234.3 L 310.9 226.15 L 314.55 212.55 L 315.15 206.8 L 314.55 201.4 L 313.65 198.65 L 312.45 196.25 L 308.8 191.15 L 306.1 187.8 L 304.9 186.9 L 301.85 185.7 L 299.75 184.2 L 284.95 177.85 L 278 176.95 L 271.4 177.85 L 265.7 176.35 L 259.95 175.75 M 202.65 198.65 L 205.35 195.65 L 207.15 194.45 L 209.25 193.55 L 221.65 192.65 L 247 191.75 L 259.35 192.65 L 263.9 191.45 L 274.7 189.9 L 280.15 190.5 L 285.25 199.9 L 288.9 209.25 L 289.2 214.35 L 288.6 216.5 L 288 217.4 L 287.1 218.3 L 252.45 223.1 L 245.8 224.65 L 231.3 226.45 L 224.05 226.15 L 215 227.35 L 205.05 226.75 L 202 225.55 L 199.3 224.05 L 198.1 222.2 L 197.2 220.1 L 196.6 215.25 L 196.9 212.55 L 197.5 210.15 L 199.3 205.3 L 202.65 198.65 M 215.3 236.4 L 218.6 236.4 L 221.95 237 L 232.2 235.2 L 262.4 234 L 265.4 234 L 279.55 230.95 L 281.35 230.95 L 284.65 231.55 L 287.7 233.4 L 288.9 234.9 L 289.5 237.3 L 289.5 241.55 L 286.15 252.7 L 281.35 256.3 L 272 261.45 L 266.9 263.25 L 250.9 266.3 L 212.3 267.2 L 201.4 268.4 L 193.55 267.2 L 192.35 266.3 L 191.15 265.05 L 190.55 263.55 L 191.45 257.55 L 191.45 251.2 L 192.35 245.75 L 193.9 243.65 L 196.3 241.85 L 208.65 237.6 L 215.3 236.4"></path><path d="M 319.35 315.5 L 315.75 312.75 L 312.75 313.95 L 308.8 311.55 L 300.35 309.45 L 291.3 309.15 L 286.75 309.45 L 278 310.95 L 274.1 310.05 L 266 310.05 L 249.7 312.15 L 240.65 311.85 L 231 314.25 L 226.75 316.4 L 219.25 322.1 L 215.9 325.75 L 213.2 329.65 L 211.1 331.75 L 209.25 334.2 L 207.45 339.3 L 207.15 341.75 L 207.15 346.85 L 209.55 363.2 L 209.55 368.65 L 209.25 371.05 L 209.85 373.2 L 211.7 377.4 L 215.3 382.85 L 221.95 388.6 L 229.8 392.5 L 233.7 393.7 L 238.85 393.4 L 248.5 394 L 262.4 396.4 L 272.3 396.7 L 281.35 394.6 L 285.85 394 L 308.8 392.8 L 314.55 389.5 L 319.65 384.95 L 323 379.5 L 324.2 376.2 L 324.5 374.7 L 324.2 369.25 L 327.5 340.55 L 327.5 332.7 L 326 325.15 L 322.1 318.5 L 319.35 315.5 M 302.75 326.95 L 304.9 327.55 L 306.7 333.3 L 307.3 336.3 L 307.9 345.35 L 306.7 357.2 L 305.2 363.2 L 300.95 374.1 L 300.35 375 L 299.45 375.9 L 297.95 377.1 L 295.85 378 L 289.5 379.5 L 287.7 380.1 Q 286.95 380.6 286.15 381.05 L 281.65 381.05 L 261.5 383.45 L 257.25 383.45 L 252.45 382.85 L 251.5 384.05 L 251.2 384.65 L 251.2 384.95 L 251.5 385.85 L 251.2 385.55 L 251.2 384.95 L 250.3 383.75 L 248.8 382.85 L 245.2 382.25 L 241.25 382.25 L 237.65 382.85 L 236.45 383.45 L 235.2 383.75 L 234.3 383.75 L 231.6 382.85 L 228.6 380.1 L 225.85 375 L 222.85 364.45 L 221.35 357.2 L 221.65 352.05 L 222.85 349 L 224.05 347.45 L 224.95 344.75 L 227.4 340.2 L 228.6 338.4 L 231.6 334.8 L 238.85 329.95 L 243.05 328.15 L 251.8 326.05 L 280.75 323.3 L 292.2 321.5 L 295.85 322.7 L 302.75 326.95"></path></g></g></svg>